# xmcd CD database file
#
# Track frame offsets:
#	150
#	31453
#	49686
#	61937
#	80156
#	106676
#	121515
#	146217
#	167239
#	188690
#	207558
#	222823
#	242810
#
# Disc length: 3406 seconds
#
# Revision: 0
# Processed by: cddbd v1.5.1PL0 Copyright (c) Steve Scherf et al.
# Submitted via: CDex 1.60beta1
#
DISCID=b80d4c0d
DTITLE=Various Artist - Olliephonics Live at the Palace Theater
DYEAR=1900
DGENRE=Jazz
TTITLE0=Olliephonics - various
TTITLE1=Unknown Artist - Track 2
TTITLE2=Unknown Artist - Track 3
TTITLE3=Unknown Artist - Track 4
TTITLE4=Unknown Artist - Track 5
TTITLE5=Unknown Artist - Track 6
TTITLE6=Unknown Artist - Track 7
TTITLE7=Unknown Artist - Track 8
TTITLE8=Unknown Artist - Track 9
TTITLE9=Unknown Artist - Track 10
TTITLE10=Unknown Artist - Track 11
TTITLE11=Unknown Artist - Track 12
TTITLE12=Unknown Artist - Track 13
EXTD=
EXTT0=
EXTT1=
EXTT2=
EXTT3=
EXTT4=
EXTT5=
EXTT6=
EXTT7=
EXTT8=
EXTT9=
EXTT10=
EXTT11=
EXTT12=
PLAYORDER=
